<svg id="Vrstva_1" data-name="Vrstva 1" xmlns="http://www.w3.org/2000/svg" viewBox="0 0 400 400"><defs><style>.cls-1{fill:#1d1d1b;stroke:#fff;stroke-miterlimit:10;stroke-width:4px;}</style></defs><rect width="400" height="400"/><line class="cls-1" x1="305.11" y1="396" x2="305.11" y2="301.91"/><line class="cls-1" x1="305.33" y1="301.67" x2="348.53" y2="255.1"/><line class="cls-1" x1="261.69" y1="255.1" x2="304.89" y2="301.67"/><line class="cls-1" x1="348.53" y1="255.1" x2="348.53" y2="217.47"/><line class="cls-1" x1="226.78" y1="255.1" x2="261.69" y2="255.1"/><line class="cls-1" x1="348.75" y1="255.34" x2="383.66" y2="255.34"/><line class="cls-1" x1="261.47" y1="254.87" x2="261.47" y2="217.23"/><line class="cls-1" x1="348.53" y1="217.47" x2="360.87" y2="204.16"/><line class="cls-1" x1="336.18" y1="204.16" x2="348.53" y2="217.47"/><line class="cls-1" x1="261.47" y1="217.23" x2="273.81" y2="203.92"/><line class="cls-1" x1="249.13" y1="203.92" x2="261.47" y2="217.23"/><line class="cls-1" x1="383.66" y1="255.34" x2="396" y2="268.64"/><line class="cls-1" x1="396" y1="242.03" x2="383.66" y2="255.34"/><line class="cls-1" x1="226.78" y1="255.1" x2="214.43" y2="241.8"/><line class="cls-1" x1="214.43" y1="268.41" x2="226.78" y2="255.1"/><line class="cls-1" x1="82.33" y1="396" x2="82.33" y2="301.91"/><line class="cls-1" x1="82.55" y1="301.67" x2="125.75" y2="255.1"/><line class="cls-1" x1="38.91" y1="255.1" x2="82.11" y2="301.67"/><line class="cls-1" x1="125.75" y1="255.1" x2="125.75" y2="217.47"/><line class="cls-1" x1="4" y1="255.1" x2="38.91" y2="255.1"/><line class="cls-1" x1="125.97" y1="255.34" x2="160.88" y2="255.34"/><line class="cls-1" x1="38.69" y1="254.87" x2="38.69" y2="217.23"/><line class="cls-1" x1="305.22" y1="142.9" x2="305.22" y2="48.81"/><line class="cls-1" x1="305.44" y1="48.57" x2="348.64" y2="2"/><line class="cls-1" x1="261.8" y1="2" x2="305" y2="48.57"/><line class="cls-1" x1="82.44" y1="142.9" x2="82.44" y2="48.81"/></svg>