<?xml version="1.0" standalone="no"?>
<!DOCTYPE svg PUBLIC "-//W3C//DTD SVG 20010904//EN"
 "http://www.w3.org/TR/2001/REC-SVG-20010904/DTD/svg10.dtd">
<svg version="1.0" xmlns="http://www.w3.org/2000/svg"
 width="700.000000pt" height="700.000000pt" viewBox="0 0 700.000000 700.000000"
 preserveAspectRatio="xMidYMid meet">
<metadata>
Created by potrace 1.14, written by Peter Selinger 2001-2017
</metadata>
<g transform="translate(0.000000,700.000000) scale(0.100000,-0.100000)"
fill="#000000" stroke="none">
<path d="M3305 6708 c-103 -156 -191 -285 -195 -288 -5 -3 -180 -5 -389 -4
-288 0 -381 -3 -377 -11 2 -7 86 -135 187 -286 100 -150 182 -278 183 -284 1
-6 -84 -140 -189 -298 l-190 -286 -390 -1 -390 0 -194 291 c-106 160 -196 287
-200 282 -4 -4 -56 -82 -117 -173 -60 -91 -112 -167 -115 -170 -3 -3 -8 -10
-10 -15 -2 -6 -35 -56 -73 -113 l-69 -102 -388 0 -389 0 190 -285 c104 -156
191 -288 192 -293 2 -5 -76 -127 -172 -272 -96 -145 -183 -275 -192 -290 l-17
-26 387 0 387 1 193 -287 c105 -159 192 -292 192 -298 0 -5 -83 -135 -185
-287 -102 -153 -186 -282 -188 -287 -2 -6 -154 -10 -394 -10 -270 0 -390 -3
-386 -11 20 -34 68 -101 75 -103 4 -2 8 -8 8 -14 0 -5 18 -35 39 -66 21 -32
89 -132 149 -223 l111 -166 -193 -289 -193 -289 387 -3 387 -2 188 -283 c103
-155 191 -286 195 -290 4 -5 65 79 136 185 71 106 132 195 135 198 3 3 8 10
10 15 2 6 29 48 59 93 l55 82 390 0 390 -1 190 -286 c105 -157 190 -291 190
-297 0 -6 -22 -44 -50 -85 -27 -40 -54 -81 -60 -90 -5 -9 -65 -99 -133 -200
-68 -100 -126 -189 -128 -195 -4 -10 79 -13 380 -12 l386 1 195 -292 194 -293
192 288 c106 158 196 289 200 292 4 3 179 5 389 4 275 -1 380 2 377 10 -3 6
-87 134 -187 285 -101 151 -183 279 -184 285 0 7 85 141 189 299 l190 287 390
0 390 0 190 -286 c104 -157 193 -288 196 -290 3 -2 93 127 199 286 l192 290
389 0 389 0 -188 283 c-104 155 -191 287 -195 294 -4 6 0 18 8 26 8 9 15 17
15 20 0 2 79 122 176 267 96 145 177 267 179 270 2 3 -170 6 -383 5 l-387 0
-196 293 -196 293 193 288 c147 220 198 289 216 292 13 2 186 4 386 4 199 -1
362 2 362 7 0 4 -69 110 -152 235 -84 125 -169 253 -189 285 l-37 56 194 291
194 291 -388 0 -389 0 -188 283 c-103 155 -191 286 -195 290 -4 5 -95 -122
-201 -282 l-194 -291 -390 0 -390 1 -190 285 c-104 158 -191 289 -193 293 -1
4 82 133 184 287 103 153 188 284 191 290 3 7 -109 10 -378 10 -263 -1 -386 2
-393 10 -6 6 -94 135 -195 287 -101 153 -187 277 -191 277 -4 0 -92 -127 -195
-282z"/>
</g>
</svg>
