<svg id="svg4275" xmlns="http://www.w3.org/2000/svg" viewBox="0 0 400 400"><defs><style>.cls-1{fill:none;stroke:#fff;stroke-width:3px;}</style></defs><rect width="400" height="400"/><path id="path4352" class="cls-1" d="M87.14,5.3l40,67.51,40,67.51H7.12l40-67.51Z"/><path id="path4338" class="cls-1" d="M241.83,50.09h51.55L319.15,4.8l25.78,45.29h51.55L370.71,95.37l25.77,45.29H344.93l-25.78,45.28-25.77-45.28H241.83L267.6,95.37,241.83,50.09"/><path id="path4374" class="cls-1" d="M7.13,350.09,15.73,335l-8.6-15.09h17.2l8.6-15.1-8.6-15.09H7.13l8.6-15.09-8.6-15.09h17.2l8.6-15.09,8.6,15.09h17.2l8.6-15.09-8.6-15.09h17.2l8.59-15.09,8.6,15.09h17.2l-8.6,15.09,8.6,15.09h17.2l8.6-15.09,8.6,15.09h17.2l-8.6,15.09,8.6,15.09h-17.2l-8.6,15.09,8.6,15.1h17.2L153.32,335l8.6,15.09h-17.2l-8.6,15.09-8.6-15.09h-17.2l-8.6,15.09,8.6,15.09H93.12l-8.6,15.09-8.59-15.09H58.73l8.6-15.09-8.6-15.09H41.53l-8.6,15.09-8.6-15.09H7.13"/><path id="path4399" class="cls-1" d="M241.9,350.26l2.87-5-2.87-5h5.73l2.86-5-2.86-5H241.9l2.87-5-2.87-5h5.73l2.86-5,2.87,5h5.72l2.87-5-2.87-5h5.73l2.86-5-2.86-5h-5.73l2.87-5-2.87-5h-5.72l-2.87,5-2.86-5H241.9l2.87-5-2.87-5h5.73l2.86-5-2.86-5H241.9l2.87-5-2.87-5h5.73l2.86-5,2.87,5h5.72l2.87-5-2.87-5h5.73l2.86-5,2.87,5h5.72l-2.86,5,2.86,5H282l2.86-5,2.87,5h5.72l2.87-5-2.87-5h5.73l2.86-5-2.86-5h-5.73l2.87-5-2.87-5h5.73l2.86-5,2.86,5h5.73l2.86-5-2.86-5h5.73l2.86-5,2.86,5h5.73l-2.86,5,2.86,5h5.73l2.86-5,2.86,5H345l-2.86,5,2.86,5h-5.73l-2.86,5,2.86,5H345l-2.86,5,2.86,5h5.73l2.86-5,2.86,5h5.73l2.86-5-2.86-5h5.73l2.86-5,2.86,5h5.73l-2.86,5,2.86,5h5.73l2.86-5,2.86,5h5.73l-2.86,5,2.86,5h-5.73l-2.86,5,2.86,5h5.73l-2.86,5,2.86,5h-5.73l-2.86,5-2.86-5h-5.73l-2.86,5,2.86,5h-5.73l-2.86,5,2.86,5h5.73l-2.86,5,2.86,5h5.73l2.86-5,2.86,5h5.73l-2.86,5,2.86,5h-5.73l-2.86,5,2.86,5h5.73l-2.86,5,2.86,5h-5.73l-2.86,5-2.86-5h-5.73l-2.86,5,2.86,5h-5.73l-2.86,5-2.86-5h-5.73l2.86-5-2.86-5h-5.73l-2.86,5-2.86-5H345l-2.86,5,2.86,5h-5.73l-2.86,5,2.86,5H345l-2.86,5,2.86,5h-5.73l-2.86,5-2.86-5H327.8l-2.86,5,2.86,5h-5.73l-2.86,5-2.86-5h-5.73l2.86-5-2.86-5h-5.73l-2.86,5-2.86-5h-5.73l2.87-5-2.87-5h5.73l2.86-5-2.86-5h-5.73l2.87-5-2.87-5h-5.72l-2.87,5-2.86-5h-5.73l-2.86,5,2.86,5h-5.72l-2.87,5-2.86-5h-5.73l2.87-5-2.87-5h-5.72l-2.87,5-2.86-5H241.9"/></svg>