<?xml version="1.0" standalone="no"?>
<!DOCTYPE svg PUBLIC "-//W3C//DTD SVG 20010904//EN"
 "http://www.w3.org/TR/2001/REC-SVG-20010904/DTD/svg10.dtd">
<svg version="1.0" xmlns="http://www.w3.org/2000/svg"
 width="700.000000pt" height="700.000000pt" viewBox="0 0 700.000000 700.000000"
 preserveAspectRatio="xMidYMid meet">
<metadata>
Created by potrace 1.14, written by Peter Selinger 2001-2017
</metadata>
<g transform="translate(0.000000,700.000000) scale(0.100000,-0.100000)"
fill="#000000" stroke="none">
<path d="M3483 6968 c-17 -21 -72 -102 -222 -325 -78 -117 -147 -216 -153
-219 -6 -4 -162 -8 -347 -9 -419 -3 -411 -3 -411 -15 0 -5 67 -109 148 -232
226 -341 217 -325 203 -354 -9 -21 -204 -321 -334 -516 l-32 -47 -390 -1 -390
0 -173 258 c-95 141 -183 270 -196 285 l-23 29 -45 -64 c-25 -35 -91 -133
-148 -218 -57 -85 -123 -185 -148 -222 l-46 -68 -388 0 -388 0 158 -237 c235
-353 225 -338 211 -365 -6 -13 -90 -141 -185 -286 -96 -145 -174 -266 -174
-270 0 -4 172 -7 383 -7 l382 1 188 -283 c104 -156 189 -291 190 -300 0 -10
-73 -130 -164 -268 -91 -137 -173 -264 -183 -281 -22 -37 6 -34 -441 -39 -358
-4 -357 -4 -353 -15 2 -5 20 -33 40 -62 21 -29 105 -155 187 -279 l149 -227
-189 -283 c-104 -156 -189 -286 -189 -289 0 -6 129 -8 571 -9 l196 -1 189
-285 c104 -156 192 -285 196 -285 4 0 45 54 90 120 46 66 108 156 138 200 30
44 79 118 109 165 l55 85 390 0 391 0 85 -128 c183 -274 290 -444 290 -457 0
-8 -21 -47 -47 -86 -27 -39 -53 -79 -58 -88 -6 -9 -65 -98 -133 -199 -67 -101
-122 -188 -122 -193 0 -12 -7 -11 407 -13 193 -1 354 -3 356 -6 3 -3 90 -134
195 -292 l190 -287 133 197 c199 298 259 382 272 383 7 0 175 1 374 3 199 1
365 5 369 8 7 8 -24 58 -221 357 -74 112 -135 209 -135 215 0 10 112 187 310
489 l64 97 390 0 391 -1 190 -284 c105 -157 195 -283 200 -282 6 2 94 129 198
283 l188 279 388 5 388 5 -188 283 c-104 155 -189 287 -189 293 0 6 29 54 63
107 173 264 262 397 269 400 5 2 8 9 8 15 0 6 7 19 17 29 9 10 13 21 9 25 -3
4 -176 7 -384 7 l-377 1 -196 293 -196 294 75 111 c152 227 273 403 301 436
l28 34 372 2 c204 1 374 5 376 7 5 5 -37 70 -266 414 l-108 162 195 291 194
291 -388 0 -389 0 -189 285 c-104 156 -192 285 -196 285 -7 0 -157 -214 -298
-427 l-94 -143 -391 0 -390 0 -81 123 c-45 67 -131 197 -192 289 l-110 166 48
79 c27 43 112 173 188 288 77 116 138 212 136 214 -2 2 -173 5 -380 6 l-376 3
-25 28 c-13 16 -34 44 -45 64 -12 19 -25 37 -28 40 -4 3 -9 12 -13 20 -14 32
-273 404 -283 407 -6 2 -16 -2 -21 -9z"/>
</g>
</svg>
